<?xml version="1.0" encoding="utf-8"?>
<!-- Generator: Adobe Illustrator 18.1.1, SVG Export Plug-In . SVG Version: 6.00 Build 0)  -->
<svg version="1.1" xmlns="http://www.w3.org/2000/svg" xmlns:xlink="http://www.w3.org/1999/xlink" x="0px" y="0px"
	 viewBox="0 0 318.2 104" enable-background="new 0 0 318.2 104" xml:space="preserve">
<g id="Capa_1" display="none">
	
		<text transform="matrix(0.9855 -6.307328e-03 6.400000e-03 1 17.7955 85.5624)" display="inline" font-family="'Majel'" font-size="87.9645">PauArte</text>
</g>
<g id="Capa_2">
	<g>
		<linearGradient id="SVGID_1_" gradientUnits="userSpaceOnUse" x1="54.1411" y1="58.2092" x2="15.4121" y2="35.849">
			<stop  offset="0" style="stop-color:#EF4136"/>
			<stop  offset="1" style="stop-color:#DA1C5C"/>
		</linearGradient>
		<path fill="url(#SVGID_1_)" d="M18.1,37.5c0-6.2,2.1-11.5,6.4-16c4.3-4.4,9.5-6.7,15.7-6.7c6.1,0,11.4,2.1,15.7,6.5
			c4.4,4.4,6.6,9.7,6.6,15.9c0,6.2-2.1,11.6-6.4,16c-4.3,4.4-9.5,6.7-15.7,6.7c-4.3,0-8.2-1-11.7-3.2L28.8,45
			c0.5,0.8,1.2,1.6,1.9,2.4c2.7,2.7,6,4,9.8,4c3.8,0,7-1.4,9.7-4.1c2.7-2.7,4-6,4-9.9c0-3.9-1.4-7.1-4.1-9.9c-2.7-2.7-6-4-9.8-4
			c-3.8,0-7,1.4-9.7,4.1c-2.7,2.7-4,6-4,9.9L26.8,75c0,1.4-0.7,2.2-2.1,2.2l-4.2,0c-1.4,0-2.1-0.7-2.1-2.1L18.1,37.5z"/>
		<linearGradient id="SVGID_2_" gradientUnits="userSpaceOnUse" x1="109.0208" y1="68.1709" x2="66.8014" y2="43.7955">
			<stop  offset="0" style="stop-color:#EF4136"/>
			<stop  offset="1" style="stop-color:#DA1C5C"/>
		</linearGradient>
		<path fill="url(#SVGID_2_)" d="M75.9,63.1l0.1,12c0,1.1-0.6,1.7-1.7,1.7l-3.4,0c-1.1,0-1.7-0.6-1.7-1.7L69,45.1
			c0-5,1.7-9.2,5.1-12.8c3.4-3.5,7.6-5.3,12.5-5.4c4.9,0,9.1,1.7,12.6,5.2c3.5,3.5,5.3,7.7,5.3,12.7l0.2,30.1c0,1.1-0.6,1.7-1.7,1.7
			l-3.4,0c-1.1,0-1.7-0.6-1.7-1.7l-0.1-12L75.9,63.1z M97.8,56.1l-0.1-11.2c0-3.1-1.1-5.7-3.3-7.9c-2.2-2.2-4.8-3.2-7.8-3.2
			c-3,0-5.6,1.1-7.8,3.3c-2.1,2.2-3.2,4.8-3.2,7.9l0.1,11.2L97.8,56.1z"/>
		<linearGradient id="SVGID_3_" gradientUnits="userSpaceOnUse" x1="147.4331" y1="59.7099" x2="105.2137" y2="35.3345">
			<stop  offset="0" style="stop-color:#EF4136"/>
			<stop  offset="1" style="stop-color:#DA1C5C"/>
		</linearGradient>
		<path fill="url(#SVGID_3_)" d="M116.5,58.6c0,3.1,1.1,5.7,3.3,7.9c2.2,2.2,4.8,3.2,7.8,3.2c3,0,5.6-1.1,7.8-3.3
			c2.1-2.2,3.2-4.8,3.2-7.9l-0.2-30.1c0-1.1,0.6-1.7,1.7-1.7l3.4,0c1.1,0,1.7,0.6,1.7,1.7l0.2,30.1c0,5-1.7,9.2-5.1,12.8
			c-3.4,3.5-7.6,5.3-12.5,5.4c-4.9,0-9.1-1.7-12.6-5.2c-3.5-3.5-5.3-7.7-5.3-12.7l-0.2-30.1c0-1.1,0.6-1.7,1.7-1.7l3.4,0
			c1.1,0,1.7,0.6,1.7,1.7L116.5,58.6z"/>
		<linearGradient id="SVGID_4_" gradientUnits="userSpaceOnUse" x1="200.2492" y1="65.4716" x2="147.4771" y2="35.0036">
			<stop  offset="0" style="stop-color:#EF4136"/>
			<stop  offset="1" style="stop-color:#DA1C5C"/>
		</linearGradient>
		<path fill="url(#SVGID_4_)" d="M158.8,59.2l0.1,15c0,1.4-0.7,2.2-2.1,2.2l-4.2,0c-1.4,0-2.1-0.7-2.1-2.1l-0.2-37.6
			c0-6.2,2.1-11.5,6.4-16c4.3-4.4,9.5-6.7,15.7-6.7c6.1,0,11.4,2.1,15.7,6.5c4.4,4.4,6.6,9.7,6.6,15.9l0.2,37.6
			c0,1.4-0.7,2.2-2.1,2.2l-4.2,0c-1.4,0-2.1-0.7-2.1-2.1l-0.1-15L158.8,59.2z M186.3,50.4l-0.1-14c0-3.9-1.4-7.1-4.1-9.9
			c-2.7-2.7-6-4-9.8-4c-3.8,0-7,1.4-9.7,4.1c-2.7,2.7-4,6-4,9.9l0.1,14L186.3,50.4z"/>
		<linearGradient id="SVGID_5_" gradientUnits="userSpaceOnUse" x1="242.8241" y1="68.3287" x2="198.867" y2="42.9501">
			<stop  offset="0" style="stop-color:#EF4136"/>
			<stop  offset="1" style="stop-color:#DA1C5C"/>
		</linearGradient>
		<path fill="url(#SVGID_5_)" d="M214.2,61.6c-1.6-0.4-3.2-1.1-4.6-2l-0.1-9.4c0.4,0.7,0.9,1.3,1.5,1.9c2.2,2.2,4.8,3.2,7.8,3.2
			c3,0,5.6-1.1,7.8-3.3c2.1-2.2,3.2-4.8,3.2-7.9c0-3.1-1.1-5.7-3.3-7.9c-2.2-2.2-4.8-3.2-7.8-3.2c-3,0-5.6,1.1-7.8,3.3
			c-2.1,2.2-3.2,4.8-3.2,7.9l0.2,30.1c0,1.1-0.6,1.7-1.7,1.7l-3.4,0c-1.1,0-1.7-0.6-1.7-1.7L201,44.3c0-5,1.7-9.2,5.1-12.8
			c3.4-3.5,7.6-5.3,12.5-5.4c4.9,0,9.1,1.7,12.6,5.2c3.5,3.5,5.3,7.7,5.3,12.7c0,5-1.7,9.2-5.1,12.8c-2.5,2.5-5.3,4.2-8.6,4.9
			l15.6,14.1l-8.5,0.1L214.2,61.6z"/>
		<linearGradient id="SVGID_6_" gradientUnits="userSpaceOnUse" x1="265.1156" y1="56.0946" x2="231.5935" y2="36.7406">
			<stop  offset="0" style="stop-color:#EF4136"/>
			<stop  offset="1" style="stop-color:#DA1C5C"/>
		</linearGradient>
		<path fill="url(#SVGID_6_)" d="M254.1,32.8l0.3,41.2c0,1.1-0.6,1.7-1.7,1.7l-3.4,0c-1.1,0-1.7-0.6-1.7-1.7l-0.3-41.2l-8.5,0.1
			c-1.1,0-1.7-0.6-1.7-1.7l0-3.4c0-1.1,0.6-1.7,1.7-1.7l23.7-0.2c1.1,0,1.7,0.6,1.7,1.7l0,3.4c0,1.1-0.6,1.7-1.7,1.7L254.1,32.8z"/>
		<linearGradient id="SVGID_7_" gradientUnits="userSpaceOnUse" x1="306.5504" y1="63.2146" x2="262.9074" y2="38.0173">
			<stop  offset="0" style="stop-color:#EF4136"/>
			<stop  offset="1" style="stop-color:#DA1C5C"/>
		</linearGradient>
		<path fill="url(#SVGID_7_)" d="M271,25.8l27.1-0.2c1.1,0,1.7,0.6,1.7,1.7l0,3.4c0,1.1-0.6,1.7-1.7,1.7l-22,0.1l0.1,22.3l22-0.1
			c1.1,0,1.7,0.6,1.7,1.7l0,3.4c0,1.1-0.6,1.7-1.7,1.7l-22,0.1l0,6.9l22-0.1c1.1,0,1.7,0.6,1.7,1.7l0,3.4c0,1.1-0.6,1.7-1.7,1.7
			l-27.1,0.2c-1.1,0-1.7-0.6-1.7-1.7l-0.3-46.4C269.3,26.4,269.9,25.8,271,25.8z"/>
	</g>
</g>
<g id="Capa_3">
	<text transform="matrix(1 0 0 1 154.7446 91.9707)" fill="#DA1C5C" font-family="'Comfortaa-Bold'" font-size="12">Diseño - Ilustración - Arte</text>
</g>
</svg>
